# xmcd
#
# Track frame offsets:
#	150
#	32890
#	45780
#	87600
#	104518
#	134495
#	172933
#
# Disc length: 2720 seconds
#
# Revision: 7
# Processed by: cddbd v1.5.2PL0 Copyright (c) Steve Scherf et al.
# Submitted via: audiograbber 1.83.01
#
DISCID=560a9e07
DTITLE=John Mayall - Jazz Blues Fusion
DYEAR=1972
DGENRE=Blues
TTITLE0=Country Road [live]
TTITLE1=Mess Around [live]
TTITLE2=Good Times Boogie [live]
TTITLE3=Change Your Ways [live]
TTITLE4=Dry Throat [live]
TTITLE5=Exercise In C Major For Harmonica [live]
TTITLE6=Got To Be This Way [live]
EXTD=
EXTT0=
EXTT1=
EXTT2=
EXTT3=
EXTT4=
EXTT5=
EXTT6=
PLAYORDER=
